<svg xmlns="http://www.w3.org/2000/svg" viewBox="0 0 160 224" width="160" height="224" shape-rendering="crispEdges">
  <rect width="160" height="224" fill="#00000000"/>

  <!-- Flame -->
  <rect x="64" y="184" width="32" height="8" fill="#ffb347"/>
  <rect x="56" y="192" width="48" height="8" fill="#ff7a00"/>
  <rect x="64" y="200" width="32" height="8" fill="#ffd166"/>
  <rect x="72" y="208" width="16" height="8" fill="#ff4d00"/>

  <!-- Fins -->
  <rect x="40" y="152" width="16" height="8" fill="#d7263d"/>
  <rect x="32" y="160" width="24" height="8" fill="#d7263d"/>
  <rect x="24" y="168" width="24" height="8" fill="#a1162a"/>
  <rect x="24" y="176" width="16" height="8" fill="#a1162a"/>

  <rect x="104" y="152" width="16" height="8" fill="#d7263d"/>
  <rect x="104" y="160" width="24" height="8" fill="#d7263d"/>
  <rect x="112" y="168" width="24" height="8" fill="#a1162a"/>
  <rect x="120" y="176" width="16" height="8" fill="#a1162a"/>

  <!-- Rocket body outline -->
  <rect x="72" y="16" width="16" height="8" fill="#222222"/>
  <rect x="64" y="24" width="32" height="8" fill="#222222"/>
  <rect x="56" y="32" width="48" height="8" fill="#222222"/>
  <rect x="56" y="40" width="48" height="8" fill="#222222"/>
  <rect x="48" y="48" width="64" height="8" fill="#222222"/>
  <rect x="48" y="56" width="64" height="8" fill="#222222"/>
  <rect x="48" y="64" width="64" height="8" fill="#222222"/>
  <rect x="48" y="72" width="64" height="8" fill="#222222"/>
  <rect x="48" y="80" width="64" height="8" fill="#222222"/>
  <rect x="48" y="88" width="64" height="8" fill="#222222"/>
  <rect x="48" y="96" width="64" height="8" fill="#222222"/>
  <rect x="48" y="104" width="64" height="8" fill="#222222"/>
  <rect x="48" y="112" width="64" height="8" fill="#222222"/>
  <rect x="48" y="120" width="64" height="8" fill="#222222"/>
  <rect x="48" y="128" width="64" height="8" fill="#222222"/>
  <rect x="48" y="136" width="64" height="8" fill="#222222"/>
  <rect x="56" y="144" width="48" height="8" fill="#222222"/>
  <rect x="64" y="152" width="32" height="8" fill="#222222"/>
  <rect x="64" y="160" width="32" height="8" fill="#222222"/>
  <rect x="72" y="168" width="16" height="8" fill="#222222"/>

  <!-- Body fill -->
  <rect x="72" y="24" width="16" height="8" fill="#f5f7fa"/>
  <rect x="64" y="32" width="32" height="8" fill="#f5f7fa"/>
  <rect x="64" y="40" width="32" height="8" fill="#f5f7fa"/>
  <rect x="56" y="48" width="48" height="8" fill="#f5f7fa"/>
  <rect x="56" y="56" width="48" height="8" fill="#f5f7fa"/>
  <rect x="56" y="64" width="48" height="8" fill="#f5f7fa"/>
  <rect x="56" y="72" width="48" height="8" fill="#f5f7fa"/>
  <rect x="56" y="80" width="48" height="8" fill="#f5f7fa"/>
  <rect x="56" y="88" width="48" height="8" fill="#f5f7fa"/>
  <rect x="56" y="96" width="48" height="8" fill="#f5f7fa"/>
  <rect x="56" y="104" width="48" height="8" fill="#f5f7fa"/>
  <rect x="56" y="112" width="48" height="8" fill="#f5f7fa"/>
  <rect x="56" y="120" width="48" height="8" fill="#f5f7fa"/>
  <rect x="56" y="128" width="48" height="8" fill="#f5f7fa"/>
  <rect x="56" y="136" width="48" height="8" fill="#f5f7fa"/>
  <rect x="64" y="144" width="32" height="8" fill="#f5f7fa"/>
  <rect x="72" y="152" width="16" height="8" fill="#f5f7fa"/>

  <!-- Nose accent -->
  <rect x="72" y="24" width="16" height="8" fill="#d7263d"/>
  <rect x="64" y="32" width="8" height="8" fill="#d7263d"/>
  <rect x="88" y="32" width="8" height="8" fill="#d7263d"/>

  <!-- Window -->
  <rect x="64" y="64" width="32" height="8" fill="#222222"/>
  <rect x="56" y="72" width="48" height="24" fill="#222222"/>
  <rect x="64" y="80" width="32" height="8" fill="#7dd3fc"/>

  <!-- Stripe -->
  <rect x="56" y="112" width="48" height="8" fill="#d7263d"/>
  <rect x="56" y="120" width="48" height="8" fill="#d7263d"/>

  <!-- Engine -->
  <rect x="64" y="160" width="32" height="16" fill="#555555"/>
  <rect x="72" y="168" width="16" height="8" fill="#2f2f2f"/>
</svg>
